<?xml version="1.0" standalone="no"?>
<!DOCTYPE svg PUBLIC "-//W3C//DTD SVG 20010904//EN"
 "http://www.w3.org/TR/2001/REC-SVG-20010904/DTD/svg10.dtd">
<svg version="1.0" xmlns="http://www.w3.org/2000/svg"
 width="2900.000000pt" height="2900.000000pt" viewBox="0 0 2900.000000 2900.000000"
 preserveAspectRatio="xMidYMid meet">
<metadata>
Created by potrace 1.14, written by Peter Selinger 2001-2017
</metadata>
<g transform="translate(0.000000,2900.000000) scale(0.100000,-0.100000)"
fill="#000000" stroke="none">
<path d="M14227 28524 c-1 -1 -92 -5 -202 -9 -110 -3 -218 -8 -240 -10 -22 -2
-83 -6 -135 -10 -52 -3 -111 -8 -130 -10 -19 -2 -64 -6 -100 -10 -36 -3 -76
-7 -90 -9 -47 -6 -135 -18 -165 -22 -66 -11 -91 -15 -115 -19 -14 -3 -38 -7
-55 -10 -34 -5 -160 -31 -190 -38 -65 -16 -203 -49 -220 -53 -26 -5 -191 -56
-320 -99 -139 -46 -347 -125 -450 -169 -172 -75 -271 -122 -277 -130 -4 -6 -8
-8 -8 -3 0 20 -679 -345 -702 -378 -4 -5 -8 -7 -8 -2 0 4 -21 -8 -47 -26 -27
-18 -69 -45 -95 -60 -26 -15 -53 -33 -60 -40 -7 -6 -25 -18 -40 -26 -15 -8
-37 -22 -47 -33 -11 -10 -23 -18 -26 -18 -16 0 -471 -342 -505 -379 -3 -4 -52
-46 -110 -96 -105 -89 -442 -420 -535 -526 -117 -131 -153 -174 -152 -182 1
-5 -5 -13 -15 -18 -9 -5 -62 -66 -118 -136 -56 -71 -116 -146 -133 -167 -18
-21 -34 -44 -36 -50 -2 -5 -12 -19 -22 -29 -29 -31 -159 -216 -159 -226 0 -5
-4 -11 -9 -13 -17 -6 -262 -391 -329 -518 -16 -30 -41 -75 -55 -100 -103 -182
-273 -548 -371 -799 -159 -405 -305 -922 -366 -1301 -7 -41 -14 -84 -16 -95
-10 -50 -45 -306 -49 -360 -3 -33 -7 -76 -9 -95 -3 -19 -8 -73 -11 -120 -4
-47 -9 -101 -10 -120 -17 -170 -25 -2454 -12 -3375 5 -398 3 -414 -64 -477
-32 -29 -55 -40 -117 -54 -263 -58 -412 -102 -549 -165 -24 -11 -53 -24 -65
-29 -56 -25 -240 -133 -293 -172 -95 -72 -196 -156 -258 -217 -87 -84 -233
-251 -220 -251 4 0 0 -5 -9 -10 -22 -13 -133 -183 -196 -300 -61 -113 -108
-223 -150 -345 -49 -146 -68 -228 -107 -470 -13 -78 -17 -1831 -17 -7615 -1
-5150 2 -6048 16 -6127 2 -10 7 -43 11 -73 10 -82 33 -194 61 -300 14 -52 27
-99 28 -105 2 -5 6 -19 11 -30 4 -11 21 -56 37 -100 33 -90 136 -298 149 -303
5 -2 9 -9 9 -16 0 -15 104 -168 177 -261 51 -64 253 -271 315 -321 290 -240
551 -368 843 -414 51 -8 2060 -11 7405 -11 4034 0 7357 3 7384 6 141 16 324
69 451 132 80 40 295 181 295 194 0 5 6 9 14 9 8 0 16 3 18 8 2 4 41 39 88 79
132 110 290 271 290 294 0 7 3 9 6 6 8 -7 112 128 177 230 59 91 150 263 140
263 -4 0 -3 4 2 8 14 10 31 50 70 162 51 146 82 273 100 410 3 19 8 53 11 74
10 71 14 217 14 531 0 171 1 1903 1 3850 0 1947 0 4832 0 6410 1 1579 -2 2907
-6 2950 -18 214 -77 461 -151 630 -10 22 -18 42 -19 45 -12 41 -112 239 -164
324 -46 74 -91 139 -156 225 -83 109 -344 361 -374 361 -6 0 -11 4 -11 8 0 5
-48 40 -108 79 -244 160 -534 282 -832 348 -95 21 -121 29 -156 46 -26 12 -46
31 -54 49 -9 22 -12 403 -11 1637 0 884 0 1685 1 1778 1 244 -7 424 -25 625
-3 30 -7 75 -10 100 -6 73 -15 153 -20 180 -2 14 -11 72 -20 130 -9 58 -23
143 -31 190 -9 47 -18 96 -21 110 -51 296 -239 936 -354 1208 -5 12 -13 32
-18 45 -116 286 -327 721 -417 859 -13 21 -24 40 -24 43 0 3 -38 67 -85 141
-47 75 -85 140 -85 144 0 5 -3 10 -8 12 -4 2 -40 53 -81 113 -114 169 -312
432 -417 555 -12 14 -41 48 -64 75 -148 174 -443 477 -609 625 -46 41 -89 80
-95 85 -6 6 -36 30 -66 55 -30 25 -57 47 -60 51 -3 3 -52 42 -110 88 -58 45
-112 87 -120 94 -98 81 -550 383 -670 448 -25 13 -46 27 -48 32 -2 4 -8 7 -12
7 -5 0 -31 13 -57 28 -207 122 -736 381 -784 385 -10 1 -16 4 -13 8 2 4 -6 11
-18 14 -13 4 -93 34 -178 67 -346 134 -632 221 -895 274 -11 2 -42 8 -70 14
-27 5 -67 12 -89 16 -21 3 -48 7 -59 10 -32 6 -166 23 -222 29 -27 2 -70 6
-95 9 -91 10 -351 23 -640 32 -189 6 -699 11 -703 8z m783 -428 c52 -4 111 -9
130 -11 19 -2 64 -6 100 -9 36 -4 81 -8 100 -11 19 -3 55 -8 80 -11 101 -13
140 -19 280 -44 108 -20 123 -23 200 -40 25 -5 54 -11 65 -14 167 -35 633
-173 730 -215 11 -5 83 -34 160 -64 77 -30 167 -67 200 -82 33 -14 74 -32 90
-40 74 -33 231 -106 245 -115 8 -5 47 -25 85 -44 93 -47 215 -113 229 -125 6
-4 43 -26 81 -47 156 -85 509 -319 680 -451 518 -401 945 -837 1300 -1328 44
-60 82 -112 86 -115 3 -3 12 -16 19 -29 7 -14 17 -30 22 -35 14 -17 158 -237
158 -242 0 -3 13 -24 28 -47 29 -42 150 -251 184 -317 10 -19 23 -42 28 -50
53 -85 223 -460 306 -675 30 -77 59 -149 63 -160 20 -46 124 -372 167 -525 60
-213 149 -617 169 -770 3 -25 8 -52 10 -60 2 -8 7 -44 10 -80 4 -36 8 -72 10
-80 3 -14 12 -118 21 -231 12 -161 17 -779 18 -2214 1 -1564 0 -1601 -19
-1632 -29 -50 -61 -58 -215 -54 -166 4 -599 5 -775 1 -71 -1 -140 -2 -152 -1
-33 2 -88 54 -92 88 -2 15 -3 154 -3 308 7 1933 2 3196 -13 3420 -8 125 -15
219 -20 255 -2 19 -7 64 -10 100 -3 36 -8 72 -10 80 -2 8 -7 40 -10 70 -3 30
-7 67 -10 83 -3 15 -10 54 -15 87 -18 99 -20 112 -36 190 -54 271 -190 724
-270 897 -13 30 -24 57 -24 62 0 30 -206 447 -292 590 -37 63 -68 116 -68 117
0 18 -349 510 -379 534 -3 3 -18 21 -33 40 -14 19 -39 50 -56 68 -16 18 -47
54 -68 80 -113 135 -374 395 -554 552 -264 231 -615 477 -870 611 -36 19 -67
36 -70 39 -8 9 -290 146 -381 186 -119 51 -361 144 -376 144 -7 0 -21 4 -31 9
-55 31 -505 151 -652 175 -19 3 -46 8 -60 10 -65 12 -303 46 -365 52 -38 3
-81 8 -95 9 -165 20 -791 28 -970 12 -124 -11 -191 -17 -230 -22 -19 -3 -55
-7 -80 -10 -198 -24 -600 -109 -780 -167 -277 -88 -507 -175 -697 -265 -54
-26 -100 -47 -103 -48 -5 -1 -33 -15 -150 -78 -132 -70 -182 -99 -290 -165
-100 -62 -339 -220 -350 -232 -3 -3 -48 -37 -100 -76 -52 -39 -105 -80 -116
-90 -12 -11 -43 -37 -70 -59 -51 -42 -106 -90 -188 -165 -75 -68 -274 -270
-341 -346 -33 -37 -70 -79 -83 -93 -13 -14 -35 -42 -50 -61 -15 -19 -34 -42
-42 -50 -9 -8 -27 -31 -40 -50 -13 -19 -27 -37 -30 -40 -7 -6 -97 -125 -120
-160 -8 -12 -20 -28 -25 -34 -15 -16 -177 -263 -208 -316 -155 -269 -280 -518
-356 -710 -23 -58 -46 -113 -51 -122 -6 -10 -10 -23 -10 -29 0 -6 -6 -25 -14
-42 -22 -50 -116 -338 -116 -357 0 -9 -3 -20 -7 -24 -4 -3 -8 -12 -9 -19 -1
-7 -14 -55 -28 -107 -13 -52 -27 -106 -30 -120 -2 -14 -12 -56 -21 -95 -9 -38
-19 -81 -21 -95 -3 -14 -11 -56 -19 -95 -16 -80 -22 -114 -29 -170 -3 -22 -7
-49 -10 -60 -2 -11 -7 -51 -11 -90 -4 -38 -9 -83 -11 -100 -2 -16 -3 -158 -3
-315 0 -157 0 -1056 0 -1997 0 -1881 4 -1756 -60 -1783 -17 -6 -54 -12 -83
-11 -29 0 -280 1 -556 1 l-504 1 -24 24 c-13 13 -24 34 -25 47 -7 143 -11
3084 -5 3363 5 235 18 644 21 690 7 111 16 215 20 233 2 10 6 43 10 73 3 30 8
61 10 69 2 8 7 33 10 55 3 23 7 52 10 65 21 112 40 197 57 265 11 44 21 87 23
95 23 109 164 535 248 750 77 196 212 509 236 550 17 27 100 200 98 203 -1 1
7 16 18 32 12 17 34 55 50 85 15 30 66 118 112 194 45 77 83 143 83 148 0 4 5
8 10 8 6 0 10 7 10 15 0 8 5 15 10 15 6 0 10 5 10 10 0 6 5 16 10 23 6 7 25
35 43 62 55 84 173 252 187 265 3 3 23 30 45 60 22 30 42 57 45 60 3 3 32 39
64 80 161 204 433 494 636 680 15 14 47 43 71 65 24 23 87 77 139 120 52 44
104 88 115 98 11 10 83 67 160 126 302 233 605 431 888 581 37 20 65 39 62 42
-3 2 1 5 8 5 6 0 91 39 187 86 292 142 563 250 850 337 74 22 149 45 165 50
25 7 161 43 215 55 20 5 238 52 270 59 14 3 36 7 50 10 13 3 42 8 65 11 22 3
63 10 90 15 74 14 220 32 355 45 36 3 76 8 90 10 21 4 88 9 240 20 19 1 98 6
175 10 77 4 141 8 142 9 6 5 537 -2 623 -8z m-140 -1569 c19 -3 64 -8 100 -11
59 -7 255 -33 305 -41 68 -11 105 -18 142 -26 24 -5 46 -8 50 -7 5 0 15 -1 23
-5 8 -3 58 -15 110 -27 428 -98 904 -286 1295 -513 122 -71 437 -277 487 -319
15 -13 49 -39 75 -58 162 -118 530 -463 663 -621 88 -105 105 -124 110 -129 3
-3 33 -42 67 -87 34 -45 63 -81 65 -80 1 1 2 0 1 -1 -1 -2 25 -41 56 -85 110
-154 184 -274 311 -502 79 -140 203 -407 267 -575 46 -120 130 -371 138 -410
2 -8 9 -35 16 -60 24 -87 24 -86 59 -250 16 -80 32 -163 35 -185 3 -22 7 -51
10 -65 3 -13 7 -42 10 -65 3 -22 8 -56 10 -75 6 -40 15 -134 20 -200 14 -169
17 -526 18 -2115 2 -1982 7 -1833 -64 -1868 -35 -17 -254 -18 -4751 -18 -2865
0 -4724 4 -4739 10 -13 5 -35 21 -49 36 l-25 27 -3 611 c-7 1788 -3 2736 13
3107 3 84 15 266 20 299 1 14 6 55 10 91 3 36 8 72 10 80 2 8 7 35 10 60 3 25
10 70 16 100 5 30 11 69 14 85 15 86 71 322 101 425 151 511 362 947 669 1384
49 70 97 138 105 150 8 11 29 37 47 56 18 19 33 38 33 41 0 3 9 17 21 30 12
13 35 41 52 63 18 21 37 43 43 50 5 6 44 49 85 96 86 99 317 330 410 411 103
90 152 132 193 164 21 17 44 35 50 40 6 6 52 40 101 75 50 36 92 67 95 70 5 6
143 98 172 115 10 5 66 39 125 75 258 155 601 310 918 415 146 48 464 133 560
150 17 2 41 7 55 10 30 6 123 23 165 29 41 7 256 34 275 34 47 2 176 15 179
18 5 4 598 -4 641 -9z m-7098 -8856 c70 -12 136 -42 206 -93 73 -54 116 -99
262 -272 23 -27 47 -54 54 -61 36 -36 108 -126 158 -198 32 -45 61 -87 65 -92
18 -23 123 -235 148 -295 14 -36 30 -74 35 -85 5 -11 21 -48 36 -82 31 -72 91
-134 148 -153 45 -14 125 -8 181 16 134 56 160 151 94 348 -33 99 -155 370
-176 391 -7 8 -13 18 -13 23 0 31 -253 380 -353 486 -20 21 -37 43 -37 47 0 5
526 9 1176 9 l1175 0 -20 -27 c-23 -33 -38 -49 -275 -297 -100 -104 -191 -200
-204 -214 -34 -36 -270 -339 -301 -387 -14 -22 -28 -42 -32 -45 -14 -13 -134
-190 -220 -325 -356 -560 -600 -1130 -764 -1783 -76 -303 -134 -626 -160 -882
-3 -30 -8 -66 -10 -80 -27 -157 -55 -1055 -35 -1129 24 -89 104 -142 220 -146
107 -3 185 36 222 110 36 71 42 135 44 480 2 314 8 498 19 585 2 19 7 64 10
100 3 36 8 81 10 100 3 19 7 53 10 75 4 39 22 164 30 215 3 14 13 70 24 125
11 55 22 111 25 125 2 14 12 54 21 90 9 36 18 74 20 85 50 229 189 633 306
893 16 35 29 65 29 68 0 20 194 390 288 549 57 97 268 422 282 435 3 3 51 66
107 140 253 334 610 707 993 1036 25 22 57 49 70 62 13 12 44 30 69 39 44 17
224 18 3581 18 l3535 0 45 -22 c58 -29 104 -73 159 -153 49 -72 128 -176 150
-200 8 -8 46 -58 85 -110 39 -52 75 -100 81 -107 51 -57 348 -514 437 -673 14
-25 52 -92 85 -150 33 -58 76 -134 96 -170 62 -114 124 -160 209 -160 84 1
204 74 242 148 35 68 21 148 -45 265 -21 38 -39 70 -39 73 0 2 -27 50 -60 106
-34 57 -66 112 -72 123 -90 159 -416 660 -522 801 -17 23 -38 52 -46 64 -8 13
-39 54 -67 91 -29 38 -49 70 -45 70 4 1 234 3 512 4 324 2 515 0 532 -7 22 -8
29 -19 37 -62 13 -72 61 -316 66 -343 37 -174 103 -418 152 -563 36 -109 92
-260 108 -295 8 -16 33 -73 56 -125 44 -100 126 -259 166 -322 13 -21 23 -42
23 -48 0 -5 5 -10 10 -10 6 0 10 -5 10 -10 0 -9 125 -201 152 -235 4 -5 27
-35 51 -66 73 -97 92 -121 110 -143 10 -11 37 -43 60 -70 66 -77 245 -256 332
-333 259 -228 525 -401 895 -581 205 -100 247 -133 289 -222 l25 -55 -1 -806
c0 -443 -4 -817 -8 -830 -17 -55 -54 -52 -195 17 -135 67 -239 131 -375 231
-119 88 -367 337 -484 486 -46 59 -88 107 -93 107 -5 0 -7 4 -4 9 3 5 -4 20
-17 33 -12 14 -26 32 -32 41 -5 9 -50 76 -99 149 -245 364 -427 698 -775 1419
-82 170 -142 223 -251 222 -49 -1 -126 -24 -140 -42 -3 -3 -14 -11 -25 -17
-11 -6 -33 -30 -50 -53 -27 -39 -30 -50 -30 -121 0 -88 -38 -4 300 -665 198
-389 278 -538 303 -567 8 -10 12 -18 9 -18 -8 0 154 -274 165 -278 4 -2 8 -8
8 -13 0 -12 52 -93 63 -97 4 -2 7 -8 7 -12 0 -16 261 -385 289 -410 4 -3 31
-34 61 -70 113 -133 258 -280 372 -378 84 -72 216 -172 226 -172 6 0 12 -4 14
-8 14 -36 352 -216 538 -286 156 -60 183 -76 208 -128 19 -41 19 -74 17 -1967
-1 -1059 -5 -2018 -8 -2131 -5 -192 -8 -238 -24 -350 -3 -25 -7 -55 -8 -67 -2
-12 -6 -34 -9 -50 -4 -15 -8 -37 -10 -48 -3 -11 -12 -51 -20 -90 -9 -38 -19
-80 -21 -92 -17 -74 -121 -396 -185 -568 -10 -27 -37 -99 -59 -160 -51 -142
-137 -366 -160 -419 -10 -22 -40 -93 -66 -156 -26 -63 -65 -152 -86 -198 -22
-45 -39 -85 -39 -88 0 -27 -335 -675 -460 -889 -29 -49 -60 -103 -70 -120 -9
-16 -35 -59 -58 -95 -22 -36 -53 -85 -68 -110 -30 -50 -254 -389 -267 -405 -4
-5 -48 -66 -98 -135 -78 -110 -305 -407 -356 -467 -10 -11 -34 -41 -53 -64
-33 -40 -171 -200 -194 -225 -6 -7 -36 -40 -66 -75 -177 -202 -555 -589 -901
-921 -282 -271 -320 -306 -499 -453 -58 -47 -118 -97 -134 -111 -15 -13 -30
-24 -33 -24 -2 0 -26 -17 -51 -37 -26 -21 -51 -41 -57 -46 -91 -70 -167 -126
-360 -265 -126 -91 -232 -168 -235 -171 -3 -3 -12 -10 -21 -16 -9 -5 -36 -23
-60 -40 l-44 -30 -608 -2 c-462 -1 -607 1 -604 10 37 94 243 513 320 652 24
44 57 103 72 130 16 28 52 90 82 139 29 49 53 91 53 92 0 2 20 33 45 70 25 36
45 67 45 69 0 2 11 21 25 42 14 21 30 45 35 53 21 31 156 227 175 253 55 76
279 372 289 382 6 7 25 29 41 51 42 53 267 325 285 345 8 9 40 44 70 79 74 87
318 361 400 450 85 94 188 238 205 290 27 81 16 151 -32 208 -87 102 -211 135
-305 79 -44 -26 -137 -114 -137 -130 0 -4 -9 -16 -20 -25 -16 -14 -249 -284
-380 -441 -20 -24 -44 -53 -54 -65 -10 -11 -37 -43 -60 -70 -23 -27 -47 -54
-52 -60 -6 -6 -33 -38 -61 -71 -27 -33 -59 -71 -71 -85 -20 -24 -140 -169
-210 -256 -17 -21 -54 -68 -82 -104 -28 -36 -56 -71 -61 -78 -6 -6 -62 -81
-124 -166 -188 -256 -364 -529 -526 -816 -29 -52 -66 -115 -80 -140 -29 -48
-279 -555 -322 -650 -14 -30 -36 -82 -49 -114 -13 -33 -38 -74 -55 -93 -30
-32 -32 -32 -120 -32 -49 1 -109 -3 -134 -8 -46 -9 -163 -9 -213 1 -167 31
-303 142 -422 341 -192 325 -332 716 -361 1015 -13 127 -6 395 11 460 2 8 7
35 10 60 24 174 139 568 218 750 8 19 43 105 78 190 34 85 75 183 91 217 15
34 28 64 28 67 0 5 63 145 147 326 19 41 55 120 80 175 25 55 49 105 53 110 5
6 9 13 10 17 1 8 46 107 105 233 20 44 50 108 66 142 16 35 42 91 58 125 39
85 126 283 201 458 33 80 65 154 70 165 37 82 265 663 274 700 2 6 6 19 10 30
5 11 14 37 22 58 62 167 187 561 250 787 19 69 41 148 49 175 37 126 143 599
171 765 3 14 11 61 19 105 15 83 60 398 71 495 3 30 7 66 9 80 1 14 6 59 10
100 4 41 9 93 11 115 2 22 6 67 9 99 3 33 8 83 10 110 9 89 14 149 20 231 3
44 8 98 10 120 26 237 32 772 11 1009 -3 28 -7 92 -11 141 -3 50 -8 106 -10
125 -3 19 -7 60 -10 90 -11 108 -17 157 -36 290 -11 74 -22 153 -25 175 -11
81 -86 443 -115 560 -105 418 -250 820 -428 1186 -89 182 -215 408 -225 402
-5 -3 -6 -1 -3 4 9 15 -173 288 -279 420 -224 278 -503 532 -761 692 -243 150
-467 235 -758 286 -83 14 -176 20 -340 19 -213 0 -304 -9 -480 -48 -234 -51
-502 -173 -712 -323 -149 -106 -202 -154 -458 -408 -264 -263 -337 -369 -338
-490 -1 -132 111 -246 234 -239 71 4 127 41 200 132 368 456 748 736 1169 861
497 148 989 24 1469 -369 128 -105 323 -301 402 -405 13 -16 26 -32 29 -35 24
-23 200 -276 200 -289 0 -5 4 -11 8 -13 8 -3 48 -68 107 -173 50 -89 163 -316
204 -410 24 -55 51 -118 61 -140 9 -22 30 -74 45 -115 15 -41 31 -84 36 -95
22 -50 141 -433 154 -495 2 -8 8 -35 15 -60 35 -142 85 -395 105 -535 3 -23 7
-50 9 -60 2 -11 7 -51 11 -90 4 -38 8 -77 10 -85 1 -8 6 -55 10 -105 4 -49 9
-106 11 -125 4 -52 16 -245 20 -320 4 -92 4 -673 0 -746 -2 -33 -7 -119 -11
-190 -4 -71 -8 -142 -10 -159 -1 -16 -6 -68 -9 -115 -4 -47 -9 -103 -12 -125
-7 -74 -15 -140 -19 -175 -3 -19 -7 -57 -10 -85 -3 -27 -7 -63 -9 -80 -8 -61
-26 -191 -31 -215 -2 -14 -6 -43 -10 -65 -10 -71 -14 -97 -56 -325 -22 -124
-45 -241 -50 -261 -5 -20 -11 -49 -13 -65 -2 -16 -11 -60 -20 -99 -9 -38 -19
-81 -22 -95 -3 -14 -9 -43 -14 -65 -13 -58 -104 -394 -134 -500 -55 -186 -266
-807 -306 -900 -5 -11 -32 -81 -60 -155 -28 -74 -58 -149 -66 -167 -7 -17 -14
-34 -14 -38 0 -4 -35 -88 -77 -188 -43 -100 -78 -184 -78 -187 -1 -3 -9 -19
-18 -37 -9 -18 -17 -39 -17 -48 0 -8 -4 -15 -10 -15 -5 0 -10 -6 -10 -14 0 -7
-23 -62 -51 -122 -28 -60 -58 -125 -66 -144 -9 -19 -31 -69 -50 -110 -20 -41
-87 -187 -150 -325 -63 -137 -128 -277 -143 -310 -54 -118 -80 -176 -155 -352
-80 -185 -195 -468 -195 -479 0 -3 -6 -20 -14 -37 -12 -27 -51 -135 -96 -267
-32 -95 -60 -202 -55 -211 4 -5 2 -9 -3 -9 -5 0 -12 -10 -15 -22 -52 -243 -72
-356 -82 -463 -4 -33 -8 -78 -10 -100 -5 -49 -6 -344 -1 -400 5 -55 18 -166
22 -190 2 -11 8 -45 14 -75 31 -178 71 -322 136 -482 55 -135 92 -209 200
-399 46 -81 84 -152 84 -156 0 -5 -413 -9 -917 -9 -505 0 -1035 -3 -1178 -5
-231 -4 -296 -1 -370 15 -306 68 -494 204 -802 582 -67 82 -130 159 -140 171
-43 51 -62 74 -195 242 -77 97 -154 193 -170 213 -17 21 -70 91 -119 155 -48
65 -92 123 -96 128 -10 12 -122 168 -180 250 -104 148 -306 466 -405 640 -105
183 -284 530 -343 665 -15 36 -43 98 -61 138 -19 41 -34 76 -34 78 0 3 -9 25
-20 50 -73 160 -309 810 -325 896 -3 13 -9 34 -14 48 -10 24 -49 156 -56 189
-2 9 -11 41 -20 71 -9 30 -18 63 -20 73 -2 10 -7 27 -10 37 -3 10 -8 27 -10
37 -2 10 -11 43 -19 73 -8 30 -17 66 -20 80 -3 14 -12 52 -20 85 -27 110 -90
413 -101 480 -2 11 -12 76 -24 145 -11 69 -23 142 -26 163 -3 20 -7 53 -10 73
-3 19 -7 56 -10 82 -3 26 -8 63 -10 82 -3 19 -7 62 -10 95 -3 33 -7 80 -10
105 -6 56 -13 132 -21 235 -3 44 -8 94 -10 110 -1 17 -5 71 -9 120 -3 50 -8
122 -11 160 -8 131 -90 210 -228 222 -60 5 -70 3 -105 -20 -57 -38 -88 -74
-122 -144 -34 -67 -41 -115 -27 -177 9 -39 12 -57 22 -129 3 -17 8 -48 10 -67
8 -47 14 -110 21 -205 3 -44 8 -98 10 -120 2 -22 7 -80 10 -130 3 -49 8 -108
11 -130 22 -183 37 -285 48 -335 3 -14 8 -43 10 -65 6 -42 6 -46 32 -190 30
-163 112 -558 144 -685 17 -69 33 -133 35 -143 2 -10 21 -78 41 -150 20 -73
40 -145 44 -162 30 -113 191 -590 230 -680 5 -11 25 -63 45 -115 45 -117 106
-261 151 -358 19 -40 34 -75 34 -77 0 -21 307 -624 371 -728 16 -26 29 -49 29
-52 0 -12 246 -409 349 -564 64 -96 121 -182 126 -190 6 -9 12 -18 15 -21 3
-3 25 -34 50 -70 24 -36 49 -70 55 -77 5 -7 28 -37 50 -68 105 -146 377 -494
470 -600 139 -161 373 -397 469 -475 30 -25 55 -48 56 -52 0 -7 -19 -7 -510
-10 -310 -1 -524 5 -578 18 -62 15 -111 53 -247 187 -78 78 -203 201 -276 273
-125 121 -329 334 -321 334 2 0 -28 35 -65 78 -138 158 -307 377 -408 527 -33
50 -63 92 -67 93 -5 2 -8 10 -8 17 0 7 -3 15 -8 17 -4 2 -29 39 -56 83 -27 44
-64 103 -82 132 -19 28 -34 54 -34 57 0 4 -11 23 -23 44 -49 78 -257 479 -257
496 0 3 -13 34 -29 69 -63 137 -179 443 -217 572 -8 28 -19 59 -24 70 -12 28
-118 404 -126 450 -2 14 -15 71 -28 127 -24 99 -70 322 -81 390 -3 18 -10 58
-15 88 -5 30 -12 72 -15 93 -6 44 -13 94 -20 140 -9 65 -23 194 -30 297 -2 30
-7 89 -10 130 -31 409 -37 1084 -11 1320 7 69 19 145 37 240 21 108 20 155 -4
213 -46 110 -187 179 -302 148 -54 -14 -111 -63 -139 -120 -31 -60 -38 -98
-52 -276 -3 -44 -7 -96 -9 -115 -20 -244 -27 -926 -12 -1145 16 -217 26 -344
32 -410 3 -27 8 -75 11 -105 3 -30 8 -73 10 -95 3 -22 7 -60 10 -85 20 -176
56 -400 100 -625 58 -292 117 -523 212 -820 57 -180 155 -439 227 -601 15 -33
33 -75 42 -94 37 -83 225 -453 277 -544 31 -54 56 -100 56 -102 0 -2 16 -28
35 -58 19 -30 35 -59 35 -65 0 -5 4 -11 8 -13 4 -1 19 -21 32 -43 23 -38 190
-292 227 -345 41 -58 157 -215 162 -220 3 -3 26 -32 51 -65 43 -57 56 -74 97
-121 10 -12 36 -43 58 -70 40 -47 78 -90 205 -229 36 -39 106 -118 155 -176
50 -57 98 -113 108 -123 9 -11 17 -23 17 -28 0 -4 -30 -8 -67 -8 -801 -9 -840
-5 -1000 91 -125 75 -285 250 -441 483 -83 124 -89 134 -161 281 -128 260
-204 474 -296 838 -35 137 -113 463 -130 547 -2 9 -22 103 -45 210 -23 107
-44 204 -46 215 -5 25 -94 397 -98 410 -1 6 -6 28 -11 50 -4 22 -11 47 -16 56
-4 9 -10 28 -13 43 -20 112 -167 546 -238 705 -190 425 -384 718 -649 981 -94
93 -141 136 -199 180 -24 19 -53 42 -63 52 -32 28 -237 163 -297 196 -53 29
-199 102 -280 140 -109 52 -125 75 -125 187 0 155 30 180 205 176 63 -2 142
-4 175 -4 56 -1 263 10 330 17 50 6 128 16 155 21 14 3 40 7 57 10 132 21 483
117 528 144 6 3 15 6 21 7 7 1 41 16 77 33 189 90 228 238 103 385 -51 60
-105 81 -189 73 -34 -3 -85 -15 -112 -27 -65 -28 -215 -77 -260 -86 -19 -3
-38 -10 -41 -15 -3 -5 -9 -7 -14 -4 -4 3 -37 -1 -72 -9 -34 -8 -81 -17 -103
-20 -22 -3 -60 -8 -85 -11 -127 -16 -237 -22 -452 -24 -270 -2 -300 4 -316 63
-9 32 -9 632 0 641 2 3 27 -6 55 -19 59 -29 208 -79 278 -95 46 -10 74 -14
167 -26 122 -16 506 -26 514 -14 2 4 12 5 22 3 29 -8 109 34 146 78 40 46 55
99 49 172 -7 82 -46 142 -118 178 -35 18 -61 21 -230 23 -104 2 -210 6 -235 9
-85 13 -255 58 -350 93 -176 66 -248 110 -283 177 -21 41 -21 47 -20 676 1
349 2 643 2 652 2 34 273 -120 439 -249 89 -69 250 -225 319 -308 23 -27 50
-60 60 -72 10 -11 25 -31 33 -43 8 -12 20 -28 25 -34 19 -20 165 -244 165
-252 0 -4 6 -15 14 -23 13 -16 43 -71 166 -306 117 -224 137 -252 204 -287 75
-39 210 -1 283 80 61 69 56 169 -18 329 -10 24 -19 45 -19 48 0 25 -205 417
-222 423 -4 2 -8 9 -8 16 0 32 -242 361 -359 489 -145 159 -414 397 -448 397
-7 0 -13 4 -13 8 0 11 -139 102 -221 144 -35 18 -66 35 -69 38 -5 5 -60 32
-70 35 -3 0 -18 8 -35 16 -16 9 -67 31 -113 49 -55 21 -89 42 -100 58 -15 23
-16 84 -17 615 0 324 3 591 7 594 8 4 237 -54 324 -82 79 -27 217 -76 239 -85
11 -5 63 -28 115 -50 94 -41 271 -132 339 -174 20 -12 43 -25 51 -29 19 -9 53
-30 60 -38 3 -3 37 -26 75 -52 250 -167 561 -452 815 -747 12 -14 31 -36 43
-50 12 -14 40 -47 62 -75 21 -27 44 -54 50 -60 5 -5 48 -62 95 -125 47 -63 87
-117 90 -120 29 -27 298 -453 370 -585 65 -120 98 -182 140 -260 23 -44 52
-93 63 -110 75 -108 182 -138 297 -83 133 63 171 154 124 289 -26 73 -99 221
-105 214 -3 -2 -5 4 -6 13 -2 31 -284 521 -350 608 -13 17 -23 36 -23 42 0 7
-4 12 -10 12 -5 0 -10 5 -10 10 0 6 -23 43 -52 83 -67 94 -180 248 -195 267
-7 8 -42 53 -79 100 -36 47 -69 87 -73 90 -3 3 -33 37 -66 75 -475 556 -1077
997 -1665 1217 -58 22 -109 41 -115 42 -5 1 -41 12 -80 24 -138 42 -280 75
-414 97 -46 8 -88 31 -102 57 -15 28 -22 368 -8 429 15 71 46 94 122 92 34 0
105 -10 157 -21 257 -57 334 -72 435 -87 60 -9 134 -18 165 -21 30 -3 66 -7
80 -10 71 -13 192 -16 236 -5 93 23 162 112 168 219 10 150 -76 242 -249 266
-51 7 -275 35 -335 42 -25 3 -56 7 -70 9 -14 3 -46 7 -72 10 -90 10 -133 15
-155 19 -12 3 -50 7 -85 10 -35 4 -79 8 -98 11 -19 3 -60 7 -90 10 -111 11
-131 15 -159 29 -54 28 -54 33 -56 625 -1 300 0 549 2 552 3 8 84 -16 183 -54
104 -39 235 -104 334 -164 81 -50 123 -80 219 -156 16 -12 34 -21 40 -19 7 2
9 1 5 -3 -11 -11 124 -133 185 -165 116 -63 237 -45 304 44 79 104 81 214 7
312 -28 37 -183 168 -321 272 -93 70 -292 202 -306 202 -5 0 -21 9 -36 19 -71
51 -318 145 -456 174 -38 8 -82 20 -97 25 -34 14 -60 53 -60 90 0 15 0 119 -1
232 0 113 -1 365 -1 560 -1 307 4 441 19 550 2 14 6 48 10 75 3 28 8 57 10 65
2 8 7 31 10 50 23 136 59 185 129 176 58 -7 268 -67 306 -87 17 -9 41 -16 54
-17 5 0 12 -4 15 -9 3 -4 31 -21 61 -36 51 -27 179 -105 190 -117 3 -3 25 -21
50 -40 117 -90 224 -199 373 -382 164 -201 226 -229 356 -163 92 46 137 130
129 237 -7 84 -33 134 -135 264 -340 429 -712 684 -1140 784 -29 6 -53 15 -53
19 0 17 143 169 241 256 137 121 409 283 539 319 3 1 34 12 70 24 78 26 206
60 258 68 216 36 255 39 344 25z m13708 -6 c14 -3 42 -7 64 -10 113 -15 306
-73 445 -135 435 -192 805 -570 970 -990 19 -47 37 -94 42 -105 24 -56 64
-249 74 -355 3 -36 8 -83 11 -105 2 -22 6 -233 8 -470 2 -236 7 -481 11 -542
3 -62 4 -113 0 -113 -10 0 -242 118 -285 145 -22 14 -42 25 -45 25 -19 0 -389
253 -415 284 -7 9 -16 16 -21 16 -5 0 -17 8 -28 18 -10 9 -49 44 -87 77 -440
383 -771 890 -966 1479 -55 167 -126 444 -143 556 -2 14 -8 48 -14 75 -5 28
-12 73 -16 102 l-6 52 38 3 c57 5 334 0 363 -7z m1628 -12083 c10 -675 5
-1147 -14 -1312 -15 -134 -17 -145 -45 -236 -38 -122 -132 -303 -259 -498 -8
-13 -32 -52 -53 -87 -55 -93 -195 -314 -246 -389 -55 -81 -261 -359 -281 -380
-8 -9 -31 -36 -50 -60 -19 -24 -39 -48 -45 -54 -5 -6 -35 -40 -65 -76 -69 -80
-161 -178 -316 -335 -121 -123 -158 -176 -168 -245 -16 -108 144 -252 261
-236 71 9 130 49 248 165 436 429 718 771 913 1106 26 44 52 89 59 100 7 11
18 33 24 49 11 27 13 28 19 11 14 -41 18 -343 7 -509 -34 -493 -212 -901 -532
-1221 -137 -138 -161 -157 -319 -262 -175 -117 -427 -216 -636 -248 -25 -4
-54 -10 -65 -13 -11 -3 -552 -6 -1202 -7 -1153 -2 -1181 -2 -1170 16 7 11 14
19 17 19 3 0 17 9 30 20 14 10 84 65 155 121 72 56 129 107 127 113 -2 6 -1 8
3 4 8 -8 145 99 145 113 0 5 4 8 8 6 5 -1 35 21 66 48 68 59 63 54 151 130 38
33 85 74 105 92 19 17 45 40 57 51 64 55 244 224 381 357 144 140 202 199 348
351 48 50 208 223 249 268 131 148 268 309 390 461 30 39 65 81 77 95 12 14
86 113 166 220 80 107 157 211 171 230 15 19 54 76 86 125 33 50 62 92 65 95
24 21 352 549 445 715 103 183 187 341 255 477 44 86 84 165 89 175 6 10 27
54 47 98 20 44 52 114 71 155 56 120 189 431 202 473 7 21 16 36 19 33 3 -4 8
-149 10 -324z m-17065 207 c38 -22 70 -39 72 -39 5 0 218 -141 231 -154 7 -6
27 -22 45 -36 151 -115 348 -336 475 -535 244 -380 403 -802 553 -1470 29
-125 38 -166 47 -200 1 -5 5 -26 8 -45 4 -19 9 -43 12 -52 3 -9 7 -27 9 -40
15 -76 28 -140 40 -193 8 -33 28 -125 45 -205 18 -80 45 -199 62 -265 16 -66
32 -129 34 -140 7 -35 55 -206 86 -305 110 -349 234 -636 374 -865 24 -38 56
-90 70 -115 15 -25 56 -69 91 -98 80 -67 98 -100 83 -148 -13 -39 -42 -51
-124 -48 -68 3 -165 3 -381 1 -200 -2 -322 6 -453 29 -312 54 -550 159 -782
348 -93 75 -261 241 -327 322 -164 201 -299 475 -339 689 -2 11 -6 31 -9 45
-7 37 -13 77 -21 150 -4 36 -8 820 -8 1742 -1 1673 -1 1678 19 1672 11 -4 51
-24 88 -45z"/>
<path d="M15017 17424 c-1 -1 -60 -5 -132 -9 -71 -4 -138 -8 -147 -8 -10 -1
-18 -5 -18 -10 0 -4 -4 -5 -10 -2 -18 11 -134 -16 -184 -43 -141 -77 -177
-232 -85 -367 34 -50 98 -77 184 -78 61 -1 199 10 245 18 14 3 76 10 169 21
224 25 532 22 709 -7 37 -5 83 -12 102 -15 19 -2 73 -11 120 -19 47 -8 103
-17 125 -20 22 -3 51 -7 65 -10 13 -2 42 -7 65 -11 43 -6 284 -52 325 -61 83
-20 173 0 228 51 73 66 101 231 53 310 -23 37 -89 85 -136 97 -144 38 -348 88
-380 93 -22 4 -47 8 -55 11 -18 5 -56 12 -119 21 -25 4 -55 8 -66 10 -11 2
-42 7 -70 10 -27 3 -66 8 -85 12 -27 5 -897 11 -903 6z"/>
<path d="M13394 17026 c-54 -20 -94 -40 -264 -133 -551 -301 -1021 -651 -1423
-1060 -128 -131 -140 -144 -212 -227 -27 -32 -59 -68 -70 -80 -11 -12 -33 -39
-50 -60 -16 -22 -35 -44 -40 -50 -6 -6 -26 -31 -45 -56 -19 -25 -37 -47 -40
-50 -3 -3 -17 -21 -30 -40 -13 -19 -27 -37 -30 -40 -13 -10 -119 -160 -195
-275 -44 -66 -82 -122 -85 -125 -3 -3 -10 -14 -17 -25 -7 -11 -38 -62 -69
-114 -31 -52 -62 -104 -68 -115 -6 -12 -19 -32 -28 -46 -77 -116 -296 -569
-397 -817 -84 -208 -221 -593 -236 -663 -2 -8 -19 -70 -39 -137 -56 -192 -121
-497 -141 -663 -4 -30 -9 -64 -12 -75 -2 -11 -6 -65 -9 -120 -5 -79 -3 -108
10 -137 31 -72 84 -104 185 -113 78 -7 139 9 183 46 44 35 65 80 82 169 8 39
18 76 24 83 6 6 13 28 16 47 10 61 16 93 26 155 44 271 145 663 235 910 20 55
40 111 45 125 7 23 58 151 83 210 6 14 11 27 11 30 1 3 25 60 55 125 83 183
211 429 303 585 46 77 88 148 93 158 36 61 201 305 271 400 46 61 84 117 84
122 0 6 4 10 8 10 4 0 34 35 67 78 32 42 69 88 81 102 12 14 51 59 86 100 273
321 629 637 990 878 137 92 315 194 553 316 223 115 258 139 301 201 67 96 60
245 -13 313 -38 35 -120 71 -174 75 -30 3 -66 -3 -105 -17z"/>
<path d="M17345 16926 c-65 -18 -121 -55 -145 -98 -20 -36 -22 -50 -17 -117 3
-42 12 -94 19 -115 11 -36 89 -126 108 -126 23 0 335 -195 470 -294 449 -328
1061 -926 1471 -1436 46 -58 86 -107 89 -110 3 -3 34 -43 68 -90 35 -47 68
-92 75 -100 7 -8 37 -50 67 -92 29 -43 58 -78 64 -78 5 0 7 -3 3 -6 -3 -3 25
-52 62 -108 340 -505 619 -1101 817 -1741 53 -170 116 -399 139 -505 2 -8 15
-67 28 -130 42 -190 96 -533 112 -705 3 -33 8 -76 10 -95 27 -215 27 -1282 0
-1680 -2 -30 -6 -102 -10 -160 -3 -58 -8 -125 -10 -150 -2 -25 -6 -83 -10
-130 -3 -47 -8 -101 -10 -120 -2 -19 -7 -64 -10 -100 -4 -36 -8 -79 -10 -96
-2 -16 -7 -59 -10 -95 -12 -107 -18 -153 -30 -239 -2 -14 -11 -76 -20 -138 -9
-62 -18 -123 -21 -135 -4 -21 -21 -112 -31 -167 -2 -14 -11 -59 -20 -100 -8
-41 -17 -84 -19 -95 -2 -11 -8 -42 -14 -70 -6 -27 -12 -59 -14 -70 -10 -48
-88 -364 -101 -405 -7 -25 -30 -101 -50 -170 -46 -155 -133 -410 -194 -565 -6
-16 -17 -43 -23 -60 -12 -33 -37 -91 -73 -170 -108 -240 -116 -277 -81 -368
31 -82 133 -148 229 -149 106 -1 164 55 270 261 42 80 87 175 102 211 31 74
124 335 130 365 3 11 9 31 14 45 11 28 90 290 96 318 2 9 15 55 28 102 55 190
144 578 196 860 6 30 13 66 15 79 6 25 51 325 61 401 3 25 8 56 10 70 6 33 15
113 20 175 2 28 6 66 9 85 3 19 7 64 11 100 3 36 8 83 10 105 4 36 7 75 20
260 5 76 14 290 20 470 5 144 14 333 20 395 27 285 26 798 -2 904 -3 12 -7 93
-9 181 -2 166 -8 241 -24 325 -5 27 -12 71 -16 97 -3 26 -8 51 -10 54 -1 3 -6
28 -9 55 -7 48 -68 362 -100 514 -61 284 -214 819 -237 828 -4 2 -6 7 -3 12 6
9 -42 146 -95 270 -17 41 -33 82 -35 90 -3 13 -46 111 -125 285 -62 139 -226
454 -292 564 -21 34 -38 65 -38 67 0 10 -189 309 -281 444 -134 198 -403 560
-460 621 -8 8 -34 39 -59 69 -25 30 -47 57 -50 60 -3 3 -20 23 -39 45 -177
209 -642 675 -789 790 -14 11 -34 29 -46 40 -16 16 -235 198 -349 291 -9 8
-22 14 -27 14 -6 0 -10 4 -10 8 0 22 -529 384 -623 427 -60 28 -151 37 -212
21z"/>
<path d="M14469 16226 c-2 -2 -38 -7 -79 -10 -65 -6 -218 -26 -315 -42 -269
-44 -649 -176 -708 -247 -69 -82 -76 -244 -14 -331 11 -16 40 -37 64 -48 83
-37 179 -24 365 48 158 62 356 116 513 140 22 3 51 8 65 11 53 9 438 11 500 2
36 -5 83 -12 105 -15 257 -37 527 -135 819 -298 53 -30 259 -171 317 -218 220
-177 423 -383 604 -613 48 -60 92 -117 99 -126 7 -9 54 -79 105 -155 50 -76
95 -144 101 -151 5 -7 10 -15 10 -19 0 -3 16 -33 36 -65 210 -347 464 -948
624 -1479 17 -58 38 -125 46 -149 8 -25 14 -50 14 -57 0 -7 5 -25 12 -41 6
-15 10 -31 10 -36 -1 -4 7 -42 18 -85 31 -115 92 -407 106 -501 4 -25 9 -50
12 -55 3 -5 6 -23 7 -40 1 -27 8 -73 21 -141 4 -23 30 -221 39 -305 4 -30 8
-66 10 -80 3 -22 11 -100 20 -210 2 -19 6 -80 10 -135 3 -55 8 -125 10 -155
23 -347 23 -1060 0 -1330 -2 -25 -6 -83 -10 -130 -8 -117 -13 -166 -19 -219
-7 -59 -18 -149 -21 -181 -3 -29 -15 -114 -20 -150 -10 -63 -25 -157 -29 -175
-5 -26 -37 -192 -42 -225 -3 -14 -9 -41 -14 -60 -5 -19 -11 -51 -14 -70 -3
-19 -21 -100 -41 -180 -20 -80 -38 -152 -40 -160 -10 -44 -91 -330 -122 -430
-67 -220 -104 -335 -113 -355 -5 -11 -14 -38 -21 -60 -6 -22 -14 -44 -18 -50
-3 -5 -6 -15 -7 -21 -2 -11 -87 -249 -104 -289 -4 -11 -14 -36 -20 -55 -7 -19
-19 -48 -25 -65 -27 -64 -136 -341 -139 -350 -3 -11 -7 -20 -51 -125 -29 -70
-39 -93 -78 -183 -14 -31 -23 -57 -20 -57 3 0 1 -6 -5 -12 -9 -12 -242 -553
-242 -563 0 -3 -13 -34 -30 -70 -17 -36 -30 -71 -30 -78 0 -7 -4 -17 -9 -23
-7 -8 -56 -128 -145 -354 -68 -176 -198 -555 -249 -730 -34 -116 -78 -280 -83
-310 -3 -14 -7 -32 -10 -40 -3 -8 -14 -58 -25 -110 -11 -52 -22 -104 -25 -115
-11 -52 -26 -144 -59 -355 -20 -133 -32 -336 -31 -535 1 -184 3 -203 23 -240
29 -55 63 -81 129 -101 103 -30 227 -5 258 51 6 11 14 22 17 25 8 6 30 84 35
125 2 16 6 50 9 75 3 25 8 110 10 190 8 199 14 285 25 350 5 30 12 71 14 90 3
19 14 82 26 140 12 58 23 116 26 130 3 14 9 42 15 63 5 20 7 41 4 46 -3 5 -2
11 2 13 5 1 16 37 27 78 117 476 280 922 694 1895 32 77 92 219 132 315 39 96
78 189 86 206 29 65 184 466 239 614 31 85 64 178 75 205 40 106 130 389 125
393 -3 3 -1 10 4 16 8 11 61 178 76 243 2 10 9 34 14 53 17 60 100 394 105
420 3 14 18 88 35 165 34 159 33 156 61 325 12 69 23 136 26 150 2 14 6 43 9
65 3 22 7 51 10 65 3 14 9 61 15 105 6 44 12 89 14 100 2 11 7 52 10 90 4 39
8 81 11 95 2 14 6 57 10 95 7 93 15 191 20 240 2 22 6 94 10 160 3 66 8 152
10 190 10 179 3 489 -20 807 -3 40 -7 109 -10 153 -2 44 -6 98 -9 120 -3 22
-8 78 -11 125 -7 91 -9 109 -19 210 -4 36 -9 85 -12 110 -5 45 -20 172 -30
242 -3 21 -6 50 -8 66 -8 58 -28 190 -46 302 -10 63 -21 129 -23 145 -4 25
-68 337 -82 400 -3 11 -16 65 -30 120 -14 55 -27 108 -29 117 -73 293 -276
875 -396 1133 -15 33 -42 92 -60 130 -100 219 -330 649 -372 695 -10 11 -18
23 -18 28 0 12 -139 214 -228 331 -340 449 -756 808 -1212 1048 -280 147 -540
230 -905 288 -46 7 -519 17 -526 11z"/>
<path d="M8303 16168 c-21 -11 -56 -38 -77 -61 -201 -215 -226 -245 -226 -264
0 -6 -4 -13 -9 -15 -8 -3 -44 -57 -83 -126 -33 -58 -138 -270 -138 -279 0 -4
-7 -21 -16 -38 -42 -81 -128 -371 -168 -573 -24 -116 -68 -402 -65 -418 1 -5
0 -11 -1 -14 -2 -6 -4 -22 -14 -135 -4 -44 -9 -98 -11 -120 -13 -133 -14 -217
-5 -265 15 -79 26 -192 35 -370 8 -154 15 -261 20 -294 2 -17 7 -53 10 -81 10
-81 35 -196 55 -254 24 -67 54 -112 96 -140 115 -79 304 -22 347 104 13 42 14
50 3 210 -16 229 -24 311 -36 385 -5 30 -12 72 -16 94 -3 21 -7 46 -9 56 -26
137 -26 618 0 772 2 13 7 46 10 73 8 76 54 336 66 371 5 17 11 40 13 50 14 71
78 261 121 359 31 71 118 248 125 255 8 8 70 111 70 116 0 3 6 11 13 18 6 8
19 24 27 36 27 40 104 144 122 164 76 84 76 218 1 306 -74 86 -183 118 -260
78z"/>
<path d="M17428 15879 c-118 -26 -213 -147 -202 -257 7 -75 48 -136 172 -261
182 -183 283 -295 431 -476 67 -82 215 -287 301 -416 56 -85 111 -166 121
-181 11 -15 19 -29 19 -32 0 -2 22 -40 49 -83 57 -93 211 -372 211 -383 0 -5
3 -10 8 -12 11 -5 272 -553 272 -572 0 -3 11 -30 25 -60 102 -224 238 -627
336 -1001 28 -104 52 -199 53 -210 2 -11 20 -101 40 -200 20 -99 41 -207 46
-240 6 -33 13 -73 16 -90 3 -16 7 -43 9 -60 3 -32 15 -116 21 -150 2 -11 6
-45 9 -75 4 -30 8 -62 10 -70 2 -8 7 -46 10 -85 3 -38 8 -83 10 -100 7 -58 19
-213 31 -405 14 -220 8 -754 -11 -940 -2 -19 -6 -84 -10 -143 -3 -60 -8 -116
-10 -125 -1 -9 -6 -62 -9 -117 -4 -55 -9 -118 -11 -140 -3 -22 -7 -68 -10
-102 -3 -35 -7 -80 -10 -100 -2 -21 -7 -60 -10 -88 -7 -73 -16 -156 -21 -190
-3 -16 -7 -50 -10 -75 -2 -25 -7 -56 -9 -70 -2 -14 -7 -47 -10 -75 -4 -27 -8
-57 -10 -65 -2 -8 -7 -35 -10 -60 -4 -25 -20 -117 -36 -205 -17 -88 -33 -173
-35 -189 -3 -16 -10 -40 -15 -52 -15 -42 -5 -185 17 -234 61 -133 190 -187
309 -130 100 48 155 144 180 315 3 22 17 108 30 191 13 83 27 170 30 194 3 23
7 54 10 69 3 15 7 44 9 64 3 20 8 52 11 69 3 18 7 51 10 73 3 22 14 112 25
200 11 88 22 187 26 220 3 33 7 76 9 95 2 19 7 73 11 120 3 47 8 96 10 110 11
91 19 350 18 620 0 382 -12 1132 -18 1180 -2 19 -7 71 -11 115 -4 44 -8 94
-10 110 -2 17 -6 53 -10 80 -3 28 -7 61 -9 75 -3 14 -7 48 -11 75 -3 28 -8 64
-11 80 -6 35 -10 61 -19 130 -3 28 -8 57 -10 65 -2 8 -7 33 -10 55 -3 23 -8
52 -11 65 -3 14 -9 50 -14 80 -24 139 -118 548 -151 655 -5 17 -20 71 -35 120
-51 177 -167 513 -244 705 -68 171 -109 264 -218 502 -14 31 -30 54 -35 51 -6
-3 -7 -1 -4 4 8 13 -130 280 -243 472 -9 14 -29 49 -45 76 -16 28 -32 52 -35
55 -3 3 -14 21 -24 40 -43 78 -314 482 -336 500 -3 3 -38 48 -77 101 -39 53
-77 102 -85 110 -7 8 -31 37 -53 64 -142 178 -513 565 -541 565 -6 0 -17 6
-23 14 -10 12 -68 32 -116 40 -11 1 -37 -1 -57 -5z"/>
<path d="M12661 15478 c-60 -31 -151 -121 -276 -272 -22 -27 -45 -54 -51 -60
-26 -28 -197 -259 -248 -336 -31 -47 -63 -94 -71 -105 -8 -10 -15 -25 -15 -31
0 -7 -4 -14 -9 -16 -12 -4 -129 -214 -204 -365 -93 -188 -203 -471 -267 -688
-10 -33 -32 -105 -48 -160 -55 -183 -139 -524 -158 -640 -3 -22 -7 -44 -9 -50
-3 -17 -15 -78 -20 -110 -3 -16 -9 -55 -14 -85 -6 -30 -12 -73 -15 -95 -24
-186 -37 -291 -42 -355 -3 -41 -7 -91 -9 -110 -23 -214 -23 -743 0 -1015 2
-27 6 -77 9 -110 6 -69 16 -158 22 -195 2 -14 9 -62 14 -108 41 -323 187 -985
277 -1252 8 -25 16 -52 18 -61 14 -68 160 -510 185 -559 46 -89 95 -114 210
-107 135 8 203 47 236 134 25 64 14 136 -46 308 -208 599 -281 849 -345 1190
-19 101 -56 317 -60 356 -3 25 -7 54 -9 65 -4 19 -17 128 -21 174 -1 14 -6 61
-10 105 -27 291 -36 637 -22 860 4 61 9 119 11 130 2 12 7 52 11 90 3 39 8 84
10 100 17 114 36 244 40 265 3 13 7 42 10 65 3 22 8 47 10 55 2 8 6 33 10 55
20 138 79 423 111 531 8 28 16 60 18 71 3 11 20 74 40 140 99 331 243 687 372
918 95 171 98 177 111 194 6 9 54 80 107 159 53 78 100 148 106 155 6 7 24 30
40 52 16 22 33 45 38 50 4 6 28 37 52 70 54 71 58 76 110 140 23 28 58 79 78
115 31 55 37 74 36 125 0 69 -17 107 -72 161 -83 81 -164 98 -251 52z"/>
<path d="M14328 13345 c-1 -2 -34 -6 -71 -9 -216 -20 -527 -110 -702 -204
-133 -72 -266 -158 -341 -221 -111 -95 -143 -125 -137 -134 3 -6 2 -7 -4 -4
-10 6 -70 -57 -178 -183 -107 -126 -254 -370 -317 -525 -24 -60 -77 -217 -82
-245 -7 -37 -15 -69 -20 -88 -3 -9 -8 -37 -11 -62 -4 -24 -8 -48 -11 -51 -2
-4 -7 -47 -10 -95 -14 -198 -6 -420 21 -554 3 -14 8 -38 11 -55 3 -16 12 -59
20 -95 9 -36 17 -73 19 -84 21 -99 85 -275 148 -406 44 -92 139 -256 156 -270
3 -3 17 -21 31 -40 35 -51 66 -86 146 -165 84 -84 90 -89 224 -189 126 -94
166 -132 229 -211 48 -60 121 -198 121 -229 0 -9 4 -16 8 -16 5 0 8 -10 7 -22
-1 -13 4 -45 12 -73 10 -40 12 -131 8 -445 -5 -311 -9 -1345 -5 -1345 3 0 4
-987 2 -990 -4 -4 -171 163 -272 271 -91 96 -222 253 -294 349 -37 50 -73 97
-80 106 -7 9 -15 20 -17 25 -2 5 -25 41 -50 79 -128 193 -302 529 -449 870
-24 55 -57 119 -72 142 -39 58 -101 93 -165 93 -53 0 -143 -26 -143 -41 0 -5
-5 -9 -10 -9 -20 0 -70 -54 -91 -97 -26 -54 -28 -140 -4 -198 133 -327 264
-607 279 -597 5 3 6 -1 1 -8 -4 -7 -4 -15 1 -19 5 -3 20 -28 34 -56 39 -79
103 -190 112 -193 4 -2 8 -8 8 -13 0 -13 101 -173 111 -177 5 -2 9 -8 9 -14 0
-8 45 -79 72 -113 4 -5 29 -39 55 -75 144 -196 243 -310 444 -510 80 -80 187
-185 237 -233 51 -48 92 -92 92 -96 0 -5 7 -15 16 -22 24 -20 97 -136 132
-209 38 -82 67 -175 92 -304 24 -114 60 -219 96 -271 13 -20 24 -39 24 -42 0
-3 17 -27 37 -52 175 -215 420 -328 703 -324 247 4 466 92 630 253 70 69 160
186 160 208 0 5 11 29 24 54 13 25 34 85 46 134 20 80 23 122 27 424 8 494 7
607 -1 795 -19 395 -15 481 29 638 52 184 146 319 311 448 75 59 87 72 155
169 25 36 71 102 102 147 125 180 266 434 342 617 42 103 107 284 109 306 1 9
5 21 9 27 8 12 62 235 72 293 3 19 10 60 15 90 39 235 31 321 -35 379 -84 74
-252 71 -329 -5 -28 -28 -65 -103 -71 -143 -5 -33 -75 -307 -109 -427 -28
-100 -80 -252 -102 -301 -8 -17 -14 -35 -14 -40 0 -5 -14 -38 -31 -74 -17 -35
-42 -89 -57 -119 -14 -30 -45 -88 -69 -128 -24 -41 -43 -77 -43 -82 0 -5 -4
-10 -8 -12 -5 -1 -28 -32 -53 -67 -68 -98 -73 -105 -89 -123 -8 -9 -35 -41
-60 -71 -82 -99 -75 -142 -74 487 1 309 4 570 7 581 3 11 13 49 22 85 36 139
119 287 222 395 26 28 46 54 45 58 -1 5 2 6 7 3 5 -4 13 0 18 7 4 7 39 38 78
68 100 77 110 86 193 164 165 155 338 408 420 615 39 100 45 115 48 125 2 6
17 57 34 115 17 57 28 110 26 116 -2 6 0 16 4 20 5 5 11 25 14 44 2 19 7 51
10 70 15 87 18 126 21 290 2 158 -1 209 -20 360 -14 105 -60 284 -106 413 -41
116 -167 377 -181 377 -4 0 -8 5 -8 11 0 9 -76 127 -89 139 -4 3 -25 30 -48
61 -148 200 -433 423 -699 549 -95 46 -304 124 -358 134 -11 3 -52 12 -91 21
-73 18 -78 19 -160 29 -27 4 -61 9 -75 13 -27 6 -396 14 -402 8z m417 -485
c162 -26 343 -86 473 -157 34 -19 62 -32 62 -29 0 4 8 -1 18 -10 9 -8 55 -42
101 -74 280 -196 527 -522 626 -830 15 -47 30 -92 33 -100 3 -8 7 -26 9 -40 2
-14 8 -44 13 -67 22 -91 29 -272 17 -413 -7 -71 -9 -91 -22 -150 -3 -14 -7
-36 -10 -50 -13 -70 -75 -237 -123 -335 -79 -158 -183 -307 -291 -416 -29 -29
-167 -142 -216 -177 -213 -152 -304 -250 -394 -429 -31 -63 -75 -184 -86 -238
-15 -77 -17 -266 -18 -2010 -2 -1667 -4 -1865 -18 -1905 -94 -268 -306 -395
-544 -325 -134 39 -233 166 -265 340 -5 28 -9 808 -10 1810 -1 1660 -2 1859
-15 1911 -2 12 -7 38 -11 59 -3 21 -10 49 -15 62 -5 13 -7 23 -4 23 2 0 -9 37
-24 83 -79 231 -230 436 -442 598 -106 81 -193 153 -220 182 -240 249 -379
526 -430 852 -15 98 -19 316 -7 416 28 244 106 474 226 669 25 41 48 77 51 80
3 3 17 21 31 40 227 323 696 594 1100 636 36 3 66 8 68 9 8 7 275 -4 337 -15z"/>
<path d="M7864 12346 c-120 -54 -166 -193 -111 -338 63 -166 285 -536 476
-795 25 -34 53 -71 61 -83 19 -28 161 -211 175 -226 5 -6 21 -26 35 -44 14
-18 51 -65 84 -104 32 -39 75 -91 95 -115 20 -25 43 -52 51 -61 8 -8 35 -40
60 -70 25 -30 47 -57 50 -60 20 -19 311 -364 376 -445 43 -55 81 -102 84 -105
22 -21 340 -463 365 -508 6 -9 32 -51 59 -92 51 -78 166 -266 209 -341 13 -24
40 -71 59 -104 76 -134 181 -396 193 -485 2 -14 11 -56 19 -94 9 -37 18 -87
21 -110 3 -22 7 -51 10 -64 4 -23 14 -110 20 -182 2 -19 6 -91 10 -160 3 -69
13 -148 21 -177 27 -96 100 -152 199 -153 104 0 177 38 218 113 21 40 22 53
22 272 0 127 -4 259 -8 295 -4 36 -10 88 -13 115 -17 152 -90 424 -159 591
-64 155 -256 524 -277 532 -4 2 -8 8 -8 14 0 13 -71 132 -82 136 -4 2 -8 8 -8
14 0 24 -437 641 -502 709 -7 8 -29 34 -48 59 -19 25 -39 50 -45 57 -5 7 -15
18 -20 25 -46 58 -91 114 -95 118 -3 3 -59 70 -125 150 -65 80 -126 152 -134
161 -9 9 -32 35 -51 59 -19 23 -39 48 -45 54 -79 89 -304 367 -375 461 -25 33
-47 62 -50 65 -3 3 -17 21 -30 40 -13 19 -27 37 -30 40 -3 3 -9 12 -15 21 -5
9 -51 77 -101 150 -49 74 -93 141 -97 149 -12 24 -32 57 -43 71 -11 13 -45 77
-130 237 -45 86 -117 162 -183 193 -57 27 -144 35 -187 15z"/>
<path d="M21718 12246 c-53 -19 -83 -40 -110 -78 -42 -59 -51 -114 -34 -208
12 -68 15 -85 21 -130 3 -25 7 -55 9 -67 3 -12 7 -50 11 -85 3 -35 8 -74 10
-88 3 -14 7 -54 10 -90 3 -36 7 -85 9 -110 3 -25 7 -83 10 -130 16 -224 23
-380 41 -900 6 -191 10 -270 22 -460 14 -233 8 -729 -12 -931 -2 -20 -6 -79
-10 -130 -4 -52 -8 -110 -10 -129 -2 -19 -6 -71 -10 -115 -3 -44 -8 -100 -10
-125 -2 -25 -6 -81 -10 -125 -19 -260 -20 -276 -41 -465 -2 -25 -6 -70 -9
-100 -3 -30 -7 -68 -9 -85 -15 -96 -37 -246 -41 -285 -3 -25 -7 -52 -10 -60
-4 -14 -11 -60 -19 -127 -2 -15 -13 -80 -25 -143 -19 -107 -23 -134 -37 -215
-3 -16 -21 -100 -41 -185 -19 -85 -37 -162 -38 -170 -1 -8 -5 -22 -8 -30 -5
-13 -41 -143 -52 -190 -18 -71 -150 -462 -179 -525 -7 -16 -19 -46 -26 -65 -7
-19 -18 -48 -25 -65 -8 -16 -34 -79 -60 -140 -130 -307 -359 -731 -580 -1075
-56 -88 -216 -331 -227 -345 -5 -5 -30 -41 -58 -80 -96 -136 -185 -258 -232
-319 -44 -57 -232 -291 -242 -302 -6 -6 -31 -35 -56 -65 -25 -29 -62 -71 -83
-94 -58 -60 -189 -212 -242 -279 -16 -21 -39 -48 -50 -61 -11 -12 -40 -46 -65
-76 -40 -49 -257 -268 -292 -295 -7 -6 -48 -34 -90 -63 -78 -54 -199 -173
-243 -239 -57 -87 -75 -213 -40 -285 33 -69 139 -127 225 -121 109 7 110 7
503 402 405 406 439 441 547 562 41 46 82 91 90 100 67 73 168 199 163 204 -4
3 -2 6 4 6 6 0 37 33 69 72 33 40 64 78 69 85 24 29 36 45 138 178 132 172
110 143 190 252 37 51 67 95 67 98 0 3 11 18 25 33 14 15 25 32 25 39 0 6 4
13 8 15 5 1 31 37 58 78 27 41 51 77 54 80 7 7 81 119 100 151 27 46 162 263
186 300 13 19 24 38 24 42 0 3 18 34 40 68 22 34 40 66 40 70 0 5 11 25 25 45
14 20 22 40 19 45 -3 5 0 9 5 9 13 0 211 401 279 565 64 156 113 277 116 290
2 6 7 21 13 35 37 91 173 520 187 590 2 8 5 22 8 30 20 53 92 355 134 555 8
39 44 231 49 265 4 19 15 85 25 145 10 61 22 130 25 155 3 25 10 72 15 105 5
33 12 80 15 105 3 25 7 61 10 80 9 70 34 287 40 350 3 36 8 81 10 100 12 88
30 329 42 565 18 337 2 1958 -22 2220 -4 48 -9 108 -21 245 -3 36 -7 83 -9
105 -7 71 -17 179 -20 225 -2 25 -7 74 -9 110 -3 36 -8 88 -10 115 -6 62 -14
167 -21 265 -8 112 -14 151 -32 190 -23 51 -42 70 -98 96 -58 27 -156 32 -217
10z"/>
<path d="M10050 11342 c-74 -9 -132 -60 -146 -132 -9 -46 -10 -248 -1 -330 28
-261 112 -519 280 -860 74 -149 201 -392 238 -455 10 -16 37 -66 60 -110 23
-44 46 -81 50 -83 5 -2 9 -8 9 -13 0 -5 42 -87 94 -182 99 -182 256 -494 295
-587 216 -514 354 -912 421 -1213 25 -113 59 -167 129 -206 78 -43 208 -33
288 22 68 46 105 164 80 256 -5 18 -10 41 -12 50 -38 165 -191 648 -250 786
-7 17 -23 57 -36 90 -44 115 -141 341 -222 515 -73 159 -301 614 -332 664 -7
12 -32 57 -55 101 -91 171 -124 230 -132 233 -4 2 -8 9 -8 15 0 7 -21 48 -46
92 -142 249 -233 442 -299 640 -24 72 -46 142 -49 155 -32 159 -43 227 -52
327 -12 151 -81 218 -230 226 -27 1 -60 1 -74 -1z"/>
<path d="M11893 6929 c-94 -17 -170 -77 -196 -153 -36 -105 -2 -258 136 -606
56 -140 239 -528 256 -540 3 -3 12 -17 19 -33 6 -15 56 -100 109 -188 54 -88
103 -168 108 -178 38 -64 79 -121 88 -121 6 0 8 -3 4 -6 -3 -3 22 -46 56 -96
34 -49 67 -97 72 -105 6 -9 15 -24 22 -32 6 -9 97 -135 200 -281 320 -449 463
-656 463 -671 0 -5 3 -9 8 -9 4 0 18 -20 32 -45 14 -25 28 -45 32 -45 5 0 8
-5 8 -10 0 -6 18 -38 40 -71 22 -33 40 -62 40 -65 0 -2 17 -33 39 -67 58 -94
92 -157 179 -332 181 -364 277 -679 318 -1040 3 -22 7 -166 9 -320 5 -300 5
-307 29 -354 33 -64 87 -101 169 -116 119 -22 228 25 276 120 22 41 26 62 25
134 0 137 -17 481 -29 589 -13 111 -16 138 -20 157 -2 11 -7 43 -10 70 -3 28
-24 123 -46 212 -97 399 -248 745 -532 1218 -80 133 -240 379 -249 383 -5 2
-8 8 -8 12 0 10 -91 143 -300 435 -25 35 -105 148 -179 251 -74 104 -152 212
-173 241 -21 29 -38 56 -38 62 0 5 -4 11 -9 13 -7 2 -140 208 -248 383 -59 95
-192 353 -236 455 -8 19 -26 60 -39 90 -45 100 -127 340 -143 420 -11 52 -62
150 -93 177 -60 53 -122 74 -189 62z"/>
<path d="M10929 6647 c-99 -90 -123 -165 -95 -302 14 -71 40 -239 52 -335 2
-19 6 -46 9 -60 3 -14 7 -43 10 -65 3 -22 7 -53 10 -70 3 -16 7 -50 10 -75 3
-25 7 -56 10 -70 2 -14 7 -45 11 -70 3 -25 7 -54 9 -65 1 -11 6 -42 10 -70 11
-82 84 -524 100 -605 8 -41 17 -91 20 -110 4 -19 11 -55 16 -80 6 -25 12 -54
15 -65 12 -63 19 -91 46 -205 16 -69 31 -132 33 -140 23 -107 112 -420 163
-575 161 -482 343 -855 599 -1223 143 -205 196 -246 318 -246 82 0 134 23 183
79 100 113 90 201 -40 370 -21 27 -42 55 -46 60 -4 6 -39 60 -78 120 -219 340
-393 730 -539 1207 -14 48 -28 95 -30 105 -2 10 -23 90 -45 178 -37 144 -49
194 -65 275 -3 14 -14 66 -25 115 -19 87 -47 230 -56 280 -2 14 -6 37 -9 53
-3 15 -14 83 -26 152 -11 68 -22 127 -24 130 -1 3 -5 28 -9 55 -3 28 -12 88
-20 135 -8 47 -17 105 -21 130 -3 25 -8 56 -10 70 -6 34 -11 66 -30 200 -9 63
-18 126 -21 140 -2 14 -6 45 -9 70 -3 25 -10 68 -15 95 -5 28 -12 75 -15 105
-13 107 -37 203 -59 239 -48 75 -85 92 -211 97 -90 3 -91 3 -126 -29z"/>
<path d="M18970 6470 c-60 -11 -117 -51 -155 -110 -12 -19 -39 -80 -60 -135
-58 -153 -162 -389 -219 -500 -28 -55 -50 -106 -49 -113 0 -7 -1 -11 -4 -8 -3
3 -37 -50 -75 -117 -75 -130 -182 -295 -254 -389 -65 -86 -91 -131 -105 -179
-27 -97 -1 -214 59 -265 42 -37 129 -66 182 -61 99 10 157 56 272 217 199 277
352 541 477 825 29 66 76 167 103 225 101 212 128 295 124 388 -3 79 -30 139
-78 175 -56 41 -141 60 -218 47z"/>
</g>
</svg>
